<svg width="52" height="52" viewBox="0 0 52 52" xmlns="http://www.w3.org/2000/svg"><g stroke="#5B5B5B" fill-rule="nonzero" fill="#5B5B5B"><path d="M35.8 30.3c-2.2 0-3 1.8-3.2 2.6h6c0-.5-.2-1.3-.7-1.8-.5-.5-1.2-.8-2-.8zM20.2 33.6h-5.7v4.9h5.4c1 0 2.2-.4 2.2-2.4 0-2.5-1.7-2.5-1.9-2.5z"/><path d="M46.2 1H5.9c-2.2 0-4 1.5-4.7 3.5v43.1c.6 1.7 2 3 3.7 3.3h42.3c1.6-.3 3-1.5 3.6-3.1V4.3c-.7-1.9-2.5-3.2-4.6-3.2zM31 22.2c0-.1.2-.3.4-.3h8.7l.3.3v2.6c0 .2-.2.4-.3.4h-8.7a.3.3 0 0 1-.4-.4v-2.6zm-3.6 14.4c0 3.3-1.8 4.9-3.2 5.6-1.6.8-3.3.9-3.8.9h-11a.4.4 0 0 1-.3-.4v-21l.3-.3h11c3.8 0 6.2 2.3 6.2 6 0 2.2-1 3.3-2 3.8.5.2 1 .5 1.4 1 1.5 1.6 1.4 4.3 1.4 4.4zm16.2-.3c0 .1-.2.3-.4.3H32.7c0 1.1.5 2 1.4 2.4a3.8 3.8 0 0 0 2 .5c1.1 0 2-.3 2.5-.8s.4-1 .4-1l.1-.3.3-.1h3.7c.2 0 .3.1.3.3 0 5.7-6 6-7.2 6h-.3c-2.7 0-4.9-.9-6.3-2.4a8.7 8.7 0 0 1-2.1-6c0-.1 0-2.2 1-4.2s3-4.2 7.4-4.2c2.5 0 4.4.7 5.8 2.2 2.4 2.8 1.9 7 1.9 7.3z"/><path d="M21.3 27.5c0-1.8-1-1.9-1-1.9h-5.9v4h5.4c.8 0 1.5-.1 1.5-2.1z"/></g></svg>