<svg width="50" height="50" viewBox="0 0 50 50" xmlns="http://www.w3.org/2000/svg"><path d="M25 .6a25 25 0 0 0-7.9 48.7c1.2.3 1.7-.5 1.7-1.2V44c-7 1.5-8.5-3.4-8.5-3.4-1-2.9-2.7-3.6-2.7-3.6-2.3-1.6.1-1.5.1-1.5 2.6.1 3.9 2.5 3.9 2.5 2.2 3.9 5.8 2.7 7.3 2.1.2-1.6.8-2.7 1.5-3.3C15 36 9.1 33.9 9.1 24.3c0-2.7 1-5 2.5-6.7A9 9 0 0 1 12 11s2-.7 6.8 2.6a23.8 23.8 0 0 1 12.6 0C36 10.3 38 11 38 11a9 9 0 0 1 .3 6.6c1.6 1.7 2.5 4 2.5 6.7C41 34 35.1 36 29.5 36.6c1 .8 1.7 2.3 1.7 4.7V48c0 .7.4 1.5 1.7 1.2A25 25 0 0 0 25 .6z" fill="#5B5B5B" fill-rule="evenodd"/></svg>