<svg width="65" height="50" viewBox="0 0 65 50" xmlns="http://www.w3.org/2000/svg"><g fill-rule="nonzero" fill="#5B5B5B"><path d="M62.5.2h-60c-1.1 0-2 1-2 2v4.4c0 .2.1.4.3.5l31.5 18h.5L63.4 7l.8-.5c.2-.1.4-.2.4-.5V2.3c0-1.2-1-2.1-2.1-2.1zM64.3 13a.5.5 0 0 0-.5 0L46.5 23.2a.5.5 0 0 0-.1.8l17.3 18.7a.5.5 0 0 0 .5 0c.3 0 .4-.2.4-.4V13.5c0-.2-.1-.4-.3-.5zM41.5 26.6a.5.5 0 0 0-.6 0l-7 4c-.8.5-1.8.5-2.6 0l-6.1-3.5a.5.5 0 0 0-.7.1L1.4 48.7a.5.5 0 0 0 0 .8l1.1.3h59.3c.3 0 .4 0 .5-.3V49L41.4 26.6zM19.4 24.7a.5.5 0 0 0 0-.9L1.1 13.5a.5.5 0 0 0-.8.4v27.2a.5.5 0 0 0 1 .4l18-16.8z"/></g></svg>