<svg width="50" height="50" viewBox="0 0 50 50" xmlns="http://www.w3.org/2000/svg"><path d="M45.2 0H4.8A4.8 4.8 0 0 0 0 4.8v40.4C0 47.8 2.2 50 4.8 50h40.4c2.6 0 4.8-2.2 4.8-4.8V4.8C50 2.2 47.8 0 45.2 0zM42 15.9c-.4 2-3 9.1-7.8 15.5-2 2.6-4.4 5.2-7.5 7-1.2.7-3.4 1.5-5 1-1-.5-1.8-1.4-2.4-2.6-1.2-2-1.8-5-2.4-7-.5-2-1-4-1.6-5.7-.3-1-.5-2-1-3l-.4-.8c-1.1-2-2.8 0-4.6-.3-.5 0-.8-.4-1-.8-.2-.2 0-.4-.7-.6v-.2c2.8-2 5-4.5 8-6.2 1-.5 2.6-1.1 3.9-.8 1 .3 2 1.3 2.4 2.6l.3.7 1 5c.4 2.3.3 6 1.6 8 .2 0 .4.5.7.8 2.2 2.3 3.8-1 4.7-2.6.8-1.5 1.5-3 1.6-4.3v-1.9c-.5-1.4-1.6-1.7-3.5-1.6h-.7c1.6-5.1 6.6-7.3 8-7.5 1.9-.3 4.5-.2 5.7 1.3.3.3.4.7.6 1 .3 1 .2 2 0 3z" fill-rule="nonzero" fill="#5B5B5B"/></svg>