<svg xmlns="http://www.w3.org/2000/svg" width="100" height="100" viewBox="0 0 100 100"><g fill="#5B5B5B"><path d="M30.3 17.6H19.8c-1.2 0-2.2 1-2.2 2.2v10.5c0 1.2 1 2.2 2.2 2.2h10.5c1.2 0 2.2-1 2.2-2.2V19.8c0-1.2-1-2.2-2.2-2.2zM55.2 17.6H44.8c-1.3 0-2.3 1-2.3 2.2v10.5c0 1.2 1 2.2 2.3 2.2h10.4c1.3 0 2.3-1 2.3-2.2V19.8c0-1.2-1-2.2-2.3-2.2zM82.4 19.8c0-1.2-1-2.2-2.2-2.2H69.7c-1.2 0-2.2 1-2.2 2.2v10.5c0 1.2 1 2.2 2.2 2.2h10.5c1.2 0 2.2-1 2.2-2.2V19.8zM30.3 42.5H19.8c-1.2 0-2.2 1-2.2 2.3v10.4c0 1.3 1 2.3 2.2 2.3h10.5c1.2 0 2.2-1 2.2-2.3V44.8c0-1.3-1-2.3-2.2-2.3zM55.2 42.5H44.8c-1.3 0-2.3 1-2.3 2.3v10.4c0 1.3 1 2.3 2.3 2.3h10.4c1.3 0 2.3-1 2.3-2.3V44.8c0-1.3-1-2.3-2.3-2.3zM80.2 42.5H69.7c-1.2 0-2.2 1-2.2 2.3v10.4c0 1.3 1 2.3 2.2 2.3h10.5c1.2 0 2.2-1 2.2-2.3V44.8c0-1.3-1-2.3-2.2-2.3zM30.3 67.5H19.8c-1.2 0-2.2 1-2.2 2.2v10.5c0 1.2 1 2.2 2.2 2.2h10.5c1.2 0 2.2-1 2.2-2.2V69.7c0-1.2-1-2.2-2.2-2.2zM55.2 67.5H44.8c-1.3 0-2.3 1-2.3 2.2v10.5c0 1.2 1 2.2 2.3 2.2h10.4c1.3 0 2.3-1 2.3-2.2V69.7c0-1.2-1-2.2-2.3-2.2zM80.2 67.5H69.7c-1.2 0-2.2 1-2.2 2.2v10.5c0 1.2 1 2.2 2.2 2.2h10.5c1.2 0 2.2-1 2.2-2.2V69.7c0-1.2-1-2.2-2.2-2.2z"/></g></svg>